<?xml version="1.0" standalone="no"?>
<!DOCTYPE svg PUBLIC "-//W3C//DTD SVG 20010904//EN"
 "http://www.w3.org/TR/2001/REC-SVG-20010904/DTD/svg10.dtd">
<svg version="1.0" xmlns="http://www.w3.org/2000/svg"
 width="360.000000pt" height="360.000000pt" viewBox="0 0 360.000000 360.000000"
 preserveAspectRatio="xMidYMid meet">
<metadata>
Created by potrace 1.16, written by Peter Selinger 2001-2019
</metadata>
<g transform="translate(0.000000,360.000000) scale(0.100000,-0.100000)"
fill="#000000" stroke="none">
<path d="M552 3570 c-329 -86 -552 -383 -552 -733 0 -253 125 -482 345 -633
32 -21 71 -49 89 -62 74 -53 365 -260 433 -307 23 -17 42 -33 43 -37 0 -3 -15
-15 -32 -26 -50 -31 -231 -159 -385 -272 -18 -14 -59 -43 -91 -65 -87 -61
-184 -139 -215 -174 -81 -92 -141 -216 -168 -344 -99 -479 237 -906 712 -907
170 0 308 47 447 153 184 140 291 359 292 594 0 131 -21 216 -86 349 l-57 113
5 78 c3 60 10 87 29 116 14 22 30 36 39 34 8 -2 61 -37 118 -78 57 -41 131
-93 165 -117 34 -24 121 -86 192 -137 72 -52 261 -186 420 -300 359 -254 428
-303 470 -335 75 -56 181 -127 226 -152 131 -71 321 -64 455 16 106 64 154
119 154 176 0 44 -14 61 -110 126 -30 20 -125 87 -210 148 -85 62 -165 118
-177 126 -12 8 -81 58 -155 110 -73 53 -143 102 -154 110 -12 8 -59 42 -104
75 -45 33 -89 65 -98 70 -8 6 -23 15 -31 22 -15 11 -340 244 -426 304 -22 16
-87 62 -145 104 -58 41 -109 77 -115 80 -6 3 -6 7 1 10 6 3 40 27 75 53 35 25
96 69 136 97 39 27 172 122 295 209 209 150 404 288 473 336 17 12 73 53 125
92 52 38 113 82 135 96 22 14 76 51 120 83 44 33 141 102 215 156 74 53 138
102 142 107 4 6 8 28 8 48 0 56 -49 111 -160 177 -137 81 -332 83 -466 3 -67
-39 -59 -34 -631 -443 -197 -140 -377 -269 -399 -285 -38 -26 -132 -93 -438
-311 -55 -40 -106 -72 -113 -72 -6 -1 -23 22 -37 51 -20 40 -26 67 -26 118 0
61 5 77 54 177 63 129 86 219 86 342 0 207 -74 386 -220 531 -109 109 -225
175 -365 206 -89 20 -246 17 -333 -6z m295 -115 c286 -54 502 -320 503 -617 0
-98 -16 -161 -69 -273 -72 -150 -76 -163 -76 -250 1 -73 4 -87 40 -160 22 -44
40 -83 40 -87 0 -14 -257 -190 -270 -184 -7 2 -118 80 -247 172 -128 92 -273
195 -323 228 -215 146 -312 305 -322 531 -5 93 -2 122 17 190 63 228 247 405
468 449 91 18 146 19 239 1z m2514 -288 c30 -15 66 -38 79 -51 28 -31 24 -37
-68 -101 -157 -108 -297 -206 -423 -296 -74 -53 -161 -115 -194 -137 -33 -23
-116 -83 -185 -133 -283 -208 -891 -639 -901 -639 -4 0 -10 17 -14 37 -15 81
-63 149 -132 189 -18 10 -33 21 -33 24 0 3 57 46 127 95 69 50 178 127 242
173 64 45 159 112 211 149 52 37 142 101 200 143 166 121 654 467 721 511 84
56 128 69 230 66 69 -3 96 -8 140 -30z m-1304 -1652 c158 -113 320 -228 358
-256 39 -27 151 -108 250 -178 603 -429 790 -564 793 -571 6 -17 -104 -80
-170 -97 -56 -14 -77 -16 -130 -6 -35 6 -79 17 -98 25 -19 9 -210 141 -425
294 -214 153 -457 326 -540 384 -394 280 -581 416 -585 424 -5 9 235 186 251
186 4 0 137 -92 296 -205z m-1218 -396 c121 -39 214 -132 248 -248 24 -85 14
-224 -22 -296 -94 -185 -317 -263 -503 -175 -190 90 -275 337 -179 525 49 97
114 153 222 192 77 28 155 28 234 2z m-476 -732 c8 -13 53 -49 100 -80 71 -47
95 -58 144 -63 32 -4 67 -13 78 -20 11 -8 14 -14 8 -14 -7 0 -15 5 -18 10 -11
18 -67 7 -75 -15 -14 -37 22 -55 112 -55 45 0 78 4 78 10 0 6 11 10 25 10 28
0 34 -15 9 -24 -27 -10 -185 -7 -228 6 -22 6 -50 19 -61 28 -11 10 -33 21 -50
25 -26 7 -27 9 -9 12 12 2 29 12 37 21 15 16 13 19 -28 41 -25 13 -45 28 -45
32 0 5 -6 9 -12 9 -22 1 -111 90 -90 90 5 0 17 -10 25 -23z"/>
<path d="M605 3344 c-200 -55 -344 -218 -375 -425 -45 -305 192 -579 500 -579
338 0 580 352 467 678 -39 113 -147 236 -249 286 -112 54 -237 69 -343 40z
m282 -147 c68 -35 114 -76 153 -137 77 -120 79 -289 6 -414 -33 -57 -117 -130
-170 -149 -129 -45 -159 -47 -254 -18 -103 32 -173 89 -227 185 -107 191 -28
439 170 533 67 32 74 33 170 30 85 -3 108 -7 152 -30z"/>
</g>
</svg>
